<?xml version="1.0" encoding="utf-8"?>
<!-- Generator: Adobe Illustrator 24.0.2, SVG Export Plug-In . SVG Version: 6.00 Build 0)  -->
<svg version="1.1" id="Layer_1" xmlns="http://www.w3.org/2000/svg" xmlns:xlink="http://www.w3.org/1999/xlink" x="0px" y="0px"
	 viewBox="0 0 840 1024" style="enable-background:new 0 0 840 1024;" xml:space="preserve">
<style type="text/css">
	.st0{fill:none;}
	.st1{opacity:0.2;fill:#6FCCDD;enable-background:new    ;}
	.st2{fill:#37323E;}
	.st3{fill:#D7DF23;}
	.st4{fill:#FFFFFF;}
	.st5{fill:#6FCCDD;}
	.st6{opacity:0.4;fill:#231F20;enable-background:new    ;}
	.st7{fill:#767A7F;}
	.st8{fill:#F1B45C;}
	.st9{opacity:0.4;}
	.st10{fill:#231F20;}
	.st11{fill:#F5B351;}
	.st12{fill:#A2B9B8;}
</style>
<title>Spacegod_Exchange_Logo</title>
<path class="st0" d="M749.33,360.13c0,4.76-0.13,9.51-0.33,14.24C749.2,369.64,749.33,364.89,749.33,360.13z"/>
<path class="st0" d="M311.31,47.05c8.42-2.75,16.93-5.16,25.53-7.23C328.24,41.89,319.73,44.3,311.31,47.05z"/>
<path class="st0" d="M748.9,376.62c-0.22,4.52-0.55,9-1,13.53C748.35,385.65,748.68,381.14,748.9,376.62z"/>
<path class="st0" d="M82.86,374.37c-0.21-4.73-0.34-9.48-0.34-14.24C82.52,364.89,82.65,369.64,82.86,374.37z"/>
<path class="st0" d="M747.69,392.64c-0.45,4.56-1,9.11-1.63,13.63C746.71,401.75,747.24,397.2,747.69,392.64z"/>
<path class="st0" d="M192.07,604.39c-2.11-1.9-4.2-3.8-6.26-5.75C187.87,600.58,189.96,602.5,192.07,604.39z"/>
<path class="st0" d="M111.37,494.38c-2-4.43-3.9-8.89-5.69-13.4C107.47,485.49,109.38,490,111.37,494.38z"/>
<path class="st0" d="M185.05,597.91c-2.25-2.14-4.47-4.29-6.65-6.48C180.59,593.62,182.81,595.78,185.05,597.91z"/>
<path class="st0" d="M83.92,390.15c-0.42-4.5-0.75-9.01-1-13.53C83.17,381.14,83.51,385.65,83.92,390.15z"/>
<path class="st0" d="M91.43,435.9c-1.09-4.55-2.09-9.12-3-13.73C89.34,426.78,90.34,431.35,91.43,435.9z"/>
<path class="st0" d="M95.46,451.21c-1.29-4.44-2.48-8.91-3.58-13.41C92.98,442.3,94.17,446.77,95.46,451.21z"/>
<path class="st0" d="M133.4,535.21c-8.11-12.77-15.32-26.09-21.59-39.86C118.08,509.12,125.29,522.44,133.4,535.21z"/>
<path class="st0" d="M105.44,480.38c-3.59-9.07-6.77-18.3-9.54-27.68C98.67,462.07,101.85,471.3,105.44,480.38z"/>
<path class="st0" d="M200.83,612c-2.54-2.12-5.04-4.28-7.5-6.47C195.78,607.72,198.28,609.88,200.83,612z"/>
<path class="st0" d="M85.79,406.27c-0.65-4.52-1.18-9.07-1.63-13.63C84.61,397.2,85.14,401.75,85.79,406.27z"/>
<path class="st0" d="M88.29,421.3c-0.86-4.51-1.62-9.04-2.29-13.61C86.67,412.25,87.43,416.79,88.29,421.3z"/>
<path class="st0" d="M142,548.05c-2.93-4.17-5.76-8.4-8.5-12.71C136.22,539.64,139.05,543.88,142,548.05z"/>
<path class="st0" d="M745.85,407.69c-0.67,4.56-1.43,9.1-2.29,13.61C744.42,416.79,745.18,412.26,745.85,407.69z"/>
<path class="st0" d="M720,495.34c-6.27,13.77-13.48,27.1-21.59,39.87C706.52,522.44,713.74,509.12,720,495.34z"/>
<path class="st0" d="M653.44,591.43c-2.17,2.19-4.38,4.35-6.62,6.47C649.06,595.77,651.27,593.61,653.44,591.43z"/>
<path class="st0" d="M726.17,481c-1.79,4.51-3.69,8.98-5.7,13.41C722.47,489.97,724.37,485.5,726.17,481z"/>
<path class="st0" d="M660.55,584.07c-2.25,2.41-4.54,4.79-6.88,7.14c13.25-13.32,25.35-27.74,36.16-43.11
	C680.93,560.76,671.14,572.78,660.55,584.07z"/>
<path class="st0" d="M142,548.1c10.81,15.37,22.92,29.8,36.18,43.12c-2.34-2.35-4.64-4.74-6.9-7.15
	C160.69,572.78,150.9,560.76,142,548.1z"/>
<path class="st0" d="M482.06,37c-43.66-8.67-88.61-8.67-132.27,0C393.45,28.33,438.4,28.33,482.06,37z"/>
<path class="st0" d="M698.37,535.34c-2.73,4.3-5.57,8.54-8.5,12.71C692.8,543.88,695.63,539.65,698.37,535.34z"/>
<path class="st0" d="M740,437.8c-1.1,4.5-2.29,8.97-3.58,13.41C737.69,446.77,738.89,442.3,740,437.8z"/>
<path class="st0" d="M638.52,605.53c-2.46,2.19-4.96,4.35-7.5,6.47C633.56,609.88,636.06,607.72,638.52,605.53z"/>
<path class="st0" d="M743.4,422.17c-0.89,4.61-1.89,9.18-3,13.73C741.51,431.35,742.52,426.78,743.4,422.17z"/>
<path class="st0" d="M646,598.65c-2,1.93-4.13,3.83-6.23,5.72C641.91,602.48,644,600.58,646,598.65z"/>
<path class="st0" d="M736,452.7c-2.77,9.37-5.95,18.6-9.54,27.68C730.02,471.31,733.2,462.09,736,452.7z"/>
<path class="st1" d="M689.83,548.1v-0.05c2.93-4.17,5.76-8.4,8.5-12.71l0.08-0.13c8.11-12.77,15.32-26.1,21.59-39.87
	c0.15-0.32,0.29-0.64,0.43-0.95c2-4.43,3.9-8.9,5.7-13.41l0.24-0.6c3.59-9.07,6.77-18.3,9.54-27.68c0.15-0.5,0.3-1,0.44-1.49
	c1.29-4.44,2.48-8.91,3.58-13.41c0.16-0.63,0.3-1.27,0.45-1.9c1.09-4.55,2.09-9.12,3-13.73c0.06-0.29,0.11-0.58,0.16-0.87
	c0.86-4.51,1.62-9.04,2.29-13.61c0.07-0.48,0.15-0.95,0.21-1.42c0.65-4.52,1.18-9.07,1.63-13.63c0.09-0.83,0.17-1.66,0.25-2.49
	c0.41-4.5,0.74-9,1-13.53c0-0.75,0.06-1.5,0.1-2.25c0.2-4.73,0.33-9.48,0.33-14.24c0-142.58-91.94-268.4-228.78-313.08
	c-12.63-4.11-25.48-7.47-38.51-10.05c-43.66-8.67-88.61-8.67-132.27,0c-4.33,0.86-8.67,1.81-13,2.85
	c-8.6,2.07-17.11,4.48-25.53,7.23C174.46,91.73,82.52,217.55,82.52,360.13c0,4.76,0.13,9.51,0.34,14.24c0,0.75,0,1.5,0.09,2.25
	c0.23,4.52,0.57,9.03,1,13.53c0.07,0.83,0.16,1.66,0.24,2.49c0.45,4.56,1,9.11,1.63,13.63c0.06,0.47,0.14,0.94,0.21,1.42
	c0.67,4.56,1.43,9.1,2.29,13.61c0,0.29,0.1,0.58,0.16,0.87c0.89,4.61,1.89,9.18,3,13.73c0.15,0.63,0.29,1.27,0.45,1.9
	c1.1,4.5,2.29,8.97,3.58,13.41c0.14,0.5,0.3,1,0.44,1.49c2.77,9.37,5.95,18.6,9.54,27.68l0.24,0.6c1.79,4.51,3.7,9,5.69,13.4
	c0.15,0.32,0.3,0.65,0.44,1c6.27,13.77,13.48,27.09,21.59,39.86l0.08,0.13c2.73,4.3,5.57,8.54,8.5,12.71v0.05
	c8.9,12.67,18.69,24.7,29.28,36c2.26,2.41,4.56,4.79,6.9,7.15l0.2,0.21c2.18,2.19,4.4,4.34,6.65,6.48l0.76,0.73
	c2.06,2,4.15,3.85,6.26,5.75l1.26,1.14c2.46,2.19,4.96,4.35,7.5,6.47c67.39,19.77,139.74,29.79,215.1,29.79S563.63,631.77,631,612
	c2.54-2.12,5.04-4.28,7.5-6.47l1.28-1.16c2.1-1.89,4.19-3.79,6.23-5.72l0.79-0.75c2.24-2.13,4.45-4.29,6.62-6.47l0.23-0.22
	c2.33-2.35,4.63-4.73,6.88-7.14C671.13,572.78,680.92,560.76,689.83,548.1z"/>
<path class="st0" d="M515.5,62.51C463.04,45.49,407.1,42.18,353,52.92c-4.12,0.82-8.23,1.72-12.32,2.71
	c-8.15,2-16.32,4.28-24.29,6.88C186.22,105,98.78,224.61,98.78,360.13c0,4.11,0.11,8.53,0.33,13.53l0.09,2.13
	c0.2,4.17,0.51,8.49,0.91,12.87l0.23,2.33c0.47,4.72,1,9,1.55,13l0.21,1.34c0.64,4.4,1.37,8.75,2.17,12.94l0.11,0.64
	c0.83,4.29,1.75,8.55,2.87,13.24l0.42,1.77c1.06,4.33,2.21,8.62,3.41,12.76l0.41,1.37c2.64,8.94,5.69,17.79,9.08,26.35l0.17,0.45
	c1.69,4.25,3.51,8.54,5.46,12.85l0.39,0.86c5.97,13.1,12.83,25.78,20.54,37.94c2.67,4.17,5.39,8.24,8.16,12.21l0.12,0.17
	c10.27,14.57,21.75,28.24,34.32,40.87c2.27,2.28,4.37,4.34,6.51,6.37l0.73,0.7c1.96,1.84,3.94,3.66,5.95,5.46l1.23,1.12
	c1.49,1.32,3,2.64,4.54,4c65,18.69,134.68,28.17,207.24,28.17s142.26-9.57,207.23-28.22c1.54-1.33,3.06-2.67,4.57-4l1.23-1.12
	c2-1.78,4-3.59,5.91-5.43l0.76-0.72c2.12-2,4.22-4.05,6.29-6.14c12.69-12.73,24.27-26.51,34.61-41.21l0.05-0.06
	c2.77-3.95,5.49-8,8.06-12.07c7.73-12.18,14.61-24.87,20.59-38l0.39-0.86c2-4.37,3.8-8.65,5.44-12.79l0.22-0.57
	c3.39-8.55,6.44-17.4,9.07-26.29l0.42-1.44c1.21-4.13,2.35-8.42,3.4-12.73l0.43-1.79c1.11-4.68,2-8.95,2.83-13.05l0.16-0.85
	c0.79-4.17,1.52-8.52,2.17-12.91L730,404c0.58-4,1.08-8.27,1.55-13l0.23-2.39c0.4-4.36,0.71-8.68,0.92-12.84l0.08-2.12
	c0.22-5.06,0.33-9.49,0.33-13.55C733.07,224.61,645.63,105,515.5,62.51z"/>
<path class="st1" d="M520.55,47.05c-12.62-4.11-25.47-7.47-38.49-10.05c-43.66-8.67-88.61-8.67-132.27,0
	c-4.33,0.86-8.67,1.81-13,2.85c-8.59,2.07-17.1,4.48-25.53,7.23C174.46,91.73,82.52,217.55,82.52,360.13
	c0,4.76,0.13,9.51,0.34,14.24c0,0.75,0,1.5,0.09,2.24c0.23,4.53,0.57,9.04,1,13.54c0.07,0.83,0.16,1.66,0.24,2.49
	c0.45,4.56,1,9.11,1.63,13.63c0.06,0.47,0.14,0.94,0.21,1.42c0.67,4.56,1.43,9.1,2.29,13.61c0,0.29,0.1,0.58,0.16,0.87
	c0.89,4.61,1.89,9.18,3,13.73c0.15,0.64,0.29,1.27,0.45,1.9c1.1,4.5,2.29,8.97,3.58,13.41c0.14,0.5,0.3,1,0.44,1.49
	c2.77,9.37,5.95,18.6,9.54,27.68l0.24,0.6c1.79,4.51,3.7,9,5.69,13.4l0.45,1c6.26,13.77,13.47,27.09,21.58,39.86l0.08,0.13
	c2.73,4.3,5.57,8.54,8.5,12.71v0.05c10.81,15.37,22.92,29.8,36.18,43.12l0.2,0.21c2.19,2.19,4.4,4.35,6.65,6.48l0.76,0.73
	c2.06,1.94,4.15,3.86,6.26,5.75l1.26,1.14c2.46,2.18,5,4.35,7.5,6.47c67.39,19.77,139.74,29.79,215.1,29.79S563.63,631.77,631,612
	c2.54-2.12,5.04-4.28,7.5-6.47l1.28-1.16c2.11-1.89,4.18-3.79,6.23-5.72l0.79-0.75c2.24-2.13,4.45-4.29,6.62-6.47l0.23-0.22
	c13.25-13.32,25.35-27.74,36.16-43.11v-0.05c2.93-4.17,5.76-8.4,8.5-12.71l0.08-0.13c8.12-12.77,15.34-26.09,21.61-39.87
	c0.15-0.32,0.29-0.64,0.43-0.95c2-4.43,3.9-8.9,5.7-13.41l0.24-0.6c3.59-9.07,6.77-18.3,9.54-27.68c0.15-0.5,0.3-1,0.44-1.49
	c1.29-4.44,2.48-8.91,3.58-13.41c0.16-0.63,0.3-1.26,0.45-1.9c1.09-4.55,2.1-9.12,3-13.73c0.06-0.29,0.11-0.58,0.16-0.87
	c0.86-4.51,1.62-9.04,2.29-13.61c0.07-0.48,0.15-0.95,0.21-1.42c0.65-4.52,1.18-9.07,1.63-13.63c0.09-0.83,0.17-1.66,0.25-2.49
	c0.41-4.5,0.74-9,1-13.54c0-0.74,0.06-1.49,0.1-2.24c0.2-4.73,0.33-9.48,0.33-14.24C749.33,217.55,657.39,91.73,520.55,47.05z
	 M732.74,373.68l-0.08,2.12c-0.21,4.16-0.52,8.48-0.92,12.84l-0.23,2.39c-0.47,4.68-1,8.92-1.55,13l-0.2,1.35
	c-0.65,4.39-1.38,8.74-2.17,12.91l-0.16,0.85c-0.79,4.1-1.72,8.37-2.83,13.05l-0.43,1.79c-1,4.31-2.19,8.6-3.4,12.73l-0.42,1.44
	c-2.63,8.89-5.68,17.74-9.07,26.29l-0.22,0.57c-1.64,4.14-3.47,8.42-5.44,12.79l-0.39,0.86c-5.98,13.13-12.86,25.82-20.59,38
	c-2.57,4.06-5.29,8.12-8.06,12.07l-0.05,0.06c-10.34,14.7-21.92,28.48-34.61,41.21c-2.07,2.08-4.16,4.13-6.29,6.14l-0.76,0.72
	c-1.94,1.84-3.92,3.65-5.91,5.43l-1.23,1.12c-1.51,1.33-3.03,2.67-4.57,4c-65,18.69-134.67,28.17-207.23,28.17
	S273.66,616,208.69,597.35c-1.53-1.32-3.05-2.64-4.54-4l-1.23-1.12c-2-1.8-3.98-3.62-5.95-5.46l-0.73-0.7
	c-2.14-2-4.24-4.09-6.51-6.37c-12.57-12.63-24.05-26.3-34.32-40.87l-0.12-0.17c-2.79-4-5.51-8.07-8.16-12.21
	c-7.71-12.16-14.57-24.84-20.54-37.94l-0.39-0.86c-1.95-4.32-3.77-8.6-5.46-12.85l-0.17-0.45c-3.39-8.56-6.44-17.41-9.08-26.35
	l-0.41-1.37c-1.2-4.14-2.35-8.43-3.41-12.76l-0.42-1.77c-1.12-4.69-2-8.95-2.87-13.24l-0.11-0.64c-0.8-4.19-1.53-8.54-2.17-12.94
	l-0.21-1.34c-0.57-4-1.08-8.27-1.55-13l-0.23-2.33c-0.4-4.38-0.71-8.7-0.91-12.87l-0.09-2.13c-0.22-5-0.33-9.42-0.33-13.53
	c0-135.52,87.44-255.13,217.58-297.62c8-2.6,16.14-4.92,24.29-6.88c4.09-0.99,8.2-1.9,12.32-2.71
	c54.11-10.79,110.08-7.47,162.53,9.64C645.63,105,733.07,224.61,733.07,360.13C733.07,364.19,733,368.62,732.74,373.68z"/>
<path class="st2" d="M528.81,21.74c-73.36-23.87-152.41-23.87-225.77,0C155.21,70,55.89,206,55.89,360.13
	c0,106,47.24,205.79,129.61,273.75c1.69,1.37,3.64,2.39,5.73,3c70.42,20.89,146,31.49,224.7,31.49s154.27-10.6,224.7-31.49
	c2.09-0.61,4.03-1.63,5.72-3C728.72,565.91,776,466.13,776,360.13C776,206,676.64,70,528.81,21.74z M653.44,591.43
	c-2.17,2.19-4.38,4.35-6.62,6.47l-0.79,0.75c-2,1.93-4.12,3.83-6.23,5.72l-1.28,1.16c-2.46,2.19-4.96,4.35-7.5,6.47
	c-67.39,19.77-139.74,29.79-215.09,29.79s-147.71-10-215.1-29.79c-2.54-2.12-5-4.29-7.5-6.47l-1.26-1.14
	c-2.11-1.89-4.19-3.8-6.26-5.75l-0.76-0.73c-2.25-2.13-4.46-4.29-6.65-6.48l-0.2-0.21c-13.27-13.32-25.38-27.74-36.2-43.12v-0.05
	c-2.93-4.17-5.76-8.4-8.5-12.71l-0.08-0.13c-8.11-12.77-15.32-26.09-21.58-39.86l-0.45-1c-2-4.43-3.9-8.89-5.69-13.4l-0.24-0.6
	c-3.59-9.07-6.77-18.3-9.54-27.68c-0.14-0.5-0.3-1-0.44-1.49c-1.29-4.44-2.48-8.91-3.58-13.41c-0.16-0.63-0.3-1.26-0.45-1.9
	c-1.09-4.55-2.09-9.12-3-13.73c-0.06-0.29-0.11-0.58-0.16-0.87c-0.86-4.49-1.62-9.01-2.29-13.58c-0.07-0.48-0.15-0.95-0.21-1.42
	c-0.65-4.52-1.18-9.07-1.63-13.63c-0.08-0.83-0.17-1.66-0.24-2.49c-0.42-4.5-0.75-9.01-1-13.54c0-0.74-0.06-1.49-0.09-2.24
	c-0.21-4.73-0.34-9.48-0.34-14.24c0-142.58,91.94-268.4,228.79-313.08c8.42-2.75,16.93-5.16,25.53-7.23c4.3-1.04,8.63-1.99,13-2.85
	c43.66-8.67,88.61-8.67,132.27,0c13.02,2.59,25.87,5.96,38.49,10.08c136.84,44.68,228.78,170.5,228.78,313.08
	c0,4.76-0.13,9.51-0.33,14.24c0,0.75-0.06,1.5-0.1,2.24c-0.22,4.53-0.55,9-1,13.54c-0.08,0.83-0.16,1.66-0.25,2.49
	c-0.45,4.56-1,9.11-1.63,13.63c-0.06,0.47-0.14,0.94-0.21,1.42c-0.67,4.56-1.43,9.1-2.29,13.61c0,0.29-0.1,0.58-0.16,0.87
	c-0.88,4.61-1.89,9.18-3,13.73c-0.16,0.64-0.3,1.27-0.46,1.9c-1.1,4.5-2.29,8.97-3.58,13.41c-0.14,0.5-0.29,1-0.44,1.49
	c-2.77,9.38-5.95,18.61-9.54,27.68l-0.24,0.6c-1.79,4.51-3.69,8.98-5.7,13.41c-0.14,0.31-0.28,0.63-0.43,0.95
	c-6.26,13.78-13.48,27.1-21.59,39.87l-0.08,0.13c-2.73,4.3-5.57,8.54-8.5,12.71v0.05c-10.81,15.37-22.91,29.79-36.16,43.11
	L653.44,591.43z"/>
<path class="st2" d="M111.81,495.35c-0.14-0.32-0.29-0.65-0.44-1C111.52,494.7,111.67,495,111.81,495.35z"/>
<path class="st2" d="M133.48,535.34l-0.08-0.13L133.48,535.34z"/>
<path class="st2" d="M185.81,598.64l-0.76-0.73L185.81,598.64z"/>
<path class="st2" d="M646.82,597.9l-0.79,0.75L646.82,597.9z"/>
<path class="st2" d="M142,548.1v-0.05V548.1z"/>
<path class="st2" d="M639.8,604.37l-1.28,1.16L639.8,604.37z"/>
<path class="st2" d="M653.67,591.21l-0.23,0.22L653.67,591.21z"/>
<path class="st2" d="M178.4,591.43l-0.2-0.21L178.4,591.43z"/>
<path class="st2" d="M193.33,605.53l-1.26-1.14L193.33,605.53z"/>
<path class="st2" d="M746.06,406.27c-0.06,0.47-0.14,0.94-0.21,1.42C745.92,407.21,746,406.74,746.06,406.27z"/>
<path class="st2" d="M736.39,451.21c-0.14,0.5-0.29,1-0.44,1.49C736.1,452.2,736.25,451.71,736.39,451.21z"/>
<path class="st2" d="M740.42,435.9c-0.15,0.63-0.29,1.27-0.45,1.9C740.13,437.17,740.27,436.54,740.42,435.9z"/>
<path class="st2" d="M743.56,421.3c0,0.29-0.1,0.58-0.16,0.87C743.46,421.88,743.51,421.59,743.56,421.3z"/>
<path class="st2" d="M726.41,480.38l-0.24,0.6L726.41,480.38z"/>
<path class="st2" d="M689.87,548.05v0.05V548.05z"/>
<path class="st2" d="M698.45,535.21l-0.08,0.13L698.45,535.21z"/>
<path class="st2" d="M720.47,494.39c-0.14,0.31-0.28,0.63-0.43,0.95C720.19,495,720.33,494.7,720.47,494.39z"/>
<path class="st2" d="M105.68,481l-0.24-0.6L105.68,481z"/>
<path class="st2" d="M88.45,422.17c-0.06-0.29-0.11-0.58-0.16-0.87C88.34,421.59,88.39,421.88,88.45,422.17z"/>
<path class="st2" d="M86,407.69c-0.07-0.48-0.15-0.95-0.21-1.42C85.85,406.74,85.93,407.21,86,407.69z"/>
<path class="st2" d="M91.88,437.8c-0.16-0.63-0.3-1.27-0.45-1.9C91.58,436.54,91.72,437.17,91.88,437.8z"/>
<path class="st2" d="M95.9,452.7c-0.14-0.5-0.3-1-0.44-1.49C95.6,451.71,95.76,452.2,95.9,452.7z"/>
<path class="st2" d="M84.16,392.64c-0.08-0.83-0.17-1.66-0.24-2.49C84,391,84.08,391.81,84.16,392.64z"/>
<path class="st2" d="M749,374.37c0,0.75-0.06,1.5-0.1,2.25C748.94,375.87,749,375.12,749,374.37z"/>
<path class="st2" d="M83,376.62c0-0.75-0.06-1.5-0.09-2.25C82.89,375.12,82.91,375.87,83,376.62z"/>
<path class="st2" d="M747.94,390.15c-0.08,0.83-0.16,1.66-0.25,2.49C747.78,391.81,747.86,391,747.94,390.15z"/>
<path class="st2" d="M420.57,612.46c90,0,176.51-11.37,257-33.8c1.13-0.89,2.22-1.82,3.34-2.72c-1.12-0.9-2.21-1.82-3.34-2.72
	c-80.53-22.43-167-33.8-257-33.8s-176.51,11.37-257,33.8c-1.12,0.9-2.22,1.82-3.33,2.72c1.11,0.9,2.21,1.83,3.33,2.72
	C244.05,601.09,330.51,612.46,420.57,612.46z"/>
<path class="st2" d="M691.29,432.78c0-128.33-130.83-239.37-170.93-270.35c-7.13-5.48-15.87-8.44-24.86-8.43h-151
	c-9,0-17.74,2.98-24.86,8.48c-40.1,31-170.93,142-170.93,270.35c0,129.13,131.71,210.74,262.62,217.88
	c1.91,0.29,3.83,0.44,5.76,0.46h1L420,651l1.95,0.09h1c1.93-0.02,3.85-0.17,5.76-0.46C559.58,643.52,691.29,561.91,691.29,432.78z"
	/>
<path class="st2" d="M339.59,1020.16c-46.39,0.12-92.12-10.98-133.3-32.34c-35.31-18.22-56.91-40.21-68-69.2
	c-8.09-21.19-8.77-42.49-2-64.52c-2,0-3.87,0.07-5.77,0.07c-19,0-36-2.51-51.93-7.69C29.85,830.65,5.27,794.69,9.42,745.24
	c2.85-34,28-59.56,58.58-59.56c11.26,0,22.3,3.36,32.83,10c8.12,5.12,16,7.62,24.06,7.62c11.76,0,24.23-5.49,37.06-16.3
	c6.95-5.79,13.29-12.27,18.92-19.35c3.91-5,7.75-10.09,11.59-15.19c14.67-19.47,29.84-39.6,50-55.77
	c14.19-11.36,31.26-18.6,52.19-22.13c0.9-0.15,1.8-0.23,2.71-0.23c2.13,0,4.24,0.42,6.21,1.23c17,7,36.17,12.16,60.41,16.19
	c9.56,1.6,20.12,2.31,34.24,2.31c6.18,0,12.37-0.13,18.57-0.26c6.42-0.13,12.84-0.26,19.25-0.26c2.92,0,5.84,0.03,8.75,0.09
	c1.74,0,3.46,0.06,5.18,0.06c31.69,0.17,62.99-7.07,91.39-21.13c3.85-1.9,8.29-2.21,12.37-0.86c40.39,13.44,68.12,48.89,92.6,80.16
	c5.4,6.9,10.5,13.42,15.7,19.7c17,20.54,35.17,30.28,57.18,30.65l0,0c4.94,0,9.63-2.29,15.56-5.2c4.1-2.1,8.32-3.94,12.65-5.52
	c7.59-2.68,15.58-4.08,23.63-4.13c29.84,0,52.83,20.23,58.58,51.54c4.28,23.29-1.62,47.72-16.6,68.78
	c-15.85,22.27-39.53,37.29-65,41.2c-16.11,2.48-30.73,4.53-46.2,4.61c14.12,57.78-5.71,98.72-62.34,130.8
	c-42,23.78-88.53,35.84-138.35,35.84c-24.06-0.12-48.05-2.65-71.61-7.55c-3.39-0.74-6.86-1.13-10.33-1.17
	c-2.92,0.02-5.82,0.36-8.67,1C387.22,1017.47,363.44,1020.07,339.59,1020.16z M466,975.09c10.5,1.34,21.07,2,31.66,2
	c26.92-0.13,53.66-4.3,79.34-12.36c37.24-11.48,61.16-26.42,77.56-48.43c13.34-17.91,14.78-38,4.27-59.81
	c-3.76-7.79-11.26-18.15-32.89-18.15c-1.86,0-3.75,0.08-5.66,0.22c-56.72,4.24-106.94,27.63-160.11,52.4l0,0
	C484.26,919.78,486,943.4,466,975.09z M316.35,975c20,0.89,29.55,1.28,36.82,1.28s12.22-0.41,22.75-1.31l2.78-0.24
	c11.02-0.8,21.83-3.48,31.95-7.92c21.2-9.48,24.9-21,25.75-30c0.75-7.78-1-17.14-19.81-27.52c-51.81-28.63-99.39-48.82-145.43-61.74
	c-15.9-4.46-33-8.65-49.87-9.2c-0.88,0-1.74,0-2.61,0c-13.56,0-23.5,3.61-32.26,11.71c-4.08,3.78-8.7,14.78-9.18,30
	c-0.51,16.21,4,31.34,11.75,39.49C219.47,951.58,258.76,968.69,316.35,975z M347.88,782.9c0,2.74-0.05,5.48-0.09,8.23
	c-0.09,5.91-0.18,11.49,0.15,16.9c0.81,13.29,4.08,21.64,19.74,30.38c20.9,11.68,39,17.35,55.36,17.35c16,0,31.34-5.44,46.77-16.62
	c3.45-2.36,7.25-4.14,11.27-5.28c0.67-0.21,1.34-0.43,2-0.67c4.24-1.57,6.34-3.37,7.49-9.88c4.68-26.5,4.36-54.44-0.95-83
	c-6.39-34.39-21.2-46.59-56.6-46.59h-2.22c-3.5,0.05-7,0.07-10.49,0.08c-6.37,0-12.65-0.09-18.66-0.28h-1.73
	c-16.64,0-28.71,7.33-39.12,23.78c-11.43,18-12.1,39.64-12.81,62.5L347.88,782.9z M272.88,803.49c12.11,3.26,23.19,6.49,33.76,9.84
	c-1.45-18.77-2-37.35-0.33-55.8C301,773,292.12,787.92,276.9,800.29c-1.32,1.07-2.65,2.14-3.99,3.2L272.88,803.49z M535.04,758.64
	c1.35,18.19,1.22,36.47-0.39,54.64c11-3.53,22-6.59,33.2-9.56c-15.08-12.85-26.04-27.93-32.78-45.08L535.04,758.64z M549.48,694.41
	c5.74-0.1,11.26,2.14,15.3,6.22c6.44,6.65,6.18,15.07,6,19.6c0,0.55-0.05,1.09,0,1.58c1.46,21.26,11.42,38,32.28,54.08
	c19,14.66,41.63,22.1,65.62,30l6.68,2.19c9.97,3.33,20.41,5.03,30.92,5.05c16.15,0,33-4.08,50.13-12.11
	c24.54-11.52,37.13-34.73,30.62-56.44c-4.63-15.48-12.35-15.48-15.25-15.48c-3.97,0.14-7.88,1.05-11.51,2.67
	c-16.27,6.69-26.5,16.61-32.03,31.23c-2.3,6.07-5.09,11.72-8.32,18.27c-1.58,3.21-3.33,6.74-5.23,10.78
	c-2.69,5.68-8.41,9.31-14.7,9.31c-0.42,0-0.84,0-1.27-0.05c-6.73-0.52-12.43-5.15-14.34-11.62c-6-20.36-0.7-35.88,5.2-47.9
	C655,730.63,633.3,706,617.75,684.59l-1.83-2.52c-6.75-9.31-13.73-18.94-20.79-28.12c-10.38-13.43-23.16-24.82-37.7-33.57
	c-2.76-1.67-3.89-1.67-4.43-1.67c-1.44,0.08-2.87,0.39-4.21,0.93c-40.65,14.62-83.52,22.14-126.72,22.24
	c-38.15-0.11-76.07-5.9-112.52-17.16c-5.73-1.9-11.72-2.95-17.76-3.1c-10.12,0-18,4-28.2,14.26c-7.54,7.62-15.35,15.49-21.38,23.75
	c-2,2.77-4.02,5.55-6.05,8.34c-20.8,28.82-43.93,60.87-84.21,73.73c4.3,9.16,6.96,19,7.85,29.07c1,10.06-2.37,16.29-5.36,19.75
	c-3.9,4.46-9.48,7.1-15.4,7.29h-0.95c-9.36,0-19.62-6.71-21.45-21.71c-1.65-13.49-8.06-24.59-19.58-33.92
	c-9.81-7.94-20.36-12.69-28.22-12.69c-2.87,0-5.09,0.63-6.6,1.87c-11.22,9.2-12.9,30.71-3.61,46c2.91,4.88,6.57,9.27,10.85,13
	c15.14,12.88,33.37,19.76,57.37,21.66c2.05,0.17,4.15,0.25,6.24,0.25c17.81,0,34.9-5.84,53-12c2.75-0.94,5.49-1.88,8.23-2.79
	c51.57-17.22,73.69-40.31,76.35-79.67v-0.69C272,695.62,287.34,694,292,694c0.57,0,1.17,0,1.79,0.07
	c5.89,0.37,11.36,3.16,15.12,7.71c3.46,4.39,5.34,9.82,5.32,15.41c14.13-43.49,45.53-66.51,93.47-68.46
	c4.35-0.18,8.71-0.27,13.08-0.26c5.53,0,11.19,0.14,16.81,0.42c46.12,2.3,76.15,24.47,89.44,65.95c0.33-4.51,1.99-8.81,4.79-12.36
	c3.7-4.52,9.08-7.36,14.9-7.87c0.93-0.12,1.86-0.19,2.79-0.2L549.48,694.41z"/>
<path class="st2" d="M813.67,741.84c-5.66-30.81-31.46-45.14-60.9-35c-11.22,3.9-20.77,11.86-33.77,11.64
	c-29.54-0.51-51.49-14.87-69.43-36.55c-29.32-35.42-57.22-80.26-100.91-94.79c-31.88,15.82-66.49,23.6-104.16,22.76
	c-27.75-0.63-56.05,2.41-83.12-2.1c-22.16-3.69-43.82-8.89-64-17.2c-16,2.7-31.22,8-44.73,18.78c-23.7,19-40.47,44.65-59,68.3
	c-6.32,7.95-13.44,15.24-21.24,21.75c-24.45,20.63-52,27.84-80.28,10c-31.71-20-63.63,2.63-66.52,37.16
	C22,790.25,44.18,818.2,83.65,831c24,7.78,49.18,8.35,78.26,4.82c-14.78,26.57-18.18,51.39-8.41,77c11.08,29,34.1,47.06,60.25,60.56
	c61.37,31.67,126.44,37.44,193.43,23.09c9-1.93,16.79-1.62,25.65,0.18c69.2,14.07,136.39,8.8,198.7-26.5
	c57.28-32.45,70.89-71.89,47.83-134.54c22.89,3.61,44.39,0.57,66.26-2.79C787.54,826.37,821.27,783.22,813.67,741.84z
	 M417.29,981.69c-11.79,5.18-24.38,8.33-37.22,9.31c-23.59,2-22.76,2.17-65,0.28c-52.3-5.68-100.13-20.8-137.89-60.46
	c-23.1-24.25-19.68-76.17-1.84-92.67c13.62-12.6,29-16.54,46.44-16c18.37,0.58,36.12,4.85,53.74,9.79
	c52.34,14.68,101.51,37,148.9,63.16c16.43,9.08,30.17,22,28.15,43.3C450.52,960.23,436.16,973.25,417.29,981.69z M331.61,782.64
	c0.83-25.61,1-51.28,15.44-74.08c12.83-20.27,30.31-32.07,55.08-31.31c9.47,0.28,18.95,0.34,28.42,0.19
	c44.72-0.67,67,16.55,75.05,59.86c5.47,29.43,6.24,59.07,1,88.85c-2,11.37-7.42,18.44-17.86,22.3c-3.17,1.17-6.7,1.93-9.35,3.85
	c-39.91,28.94-78.21,23.44-119.62,0.31c-19.75-11-26.84-23.93-28-43.59C331.17,800.26,331.61,791.43,331.61,782.64z M667.57,926
	c-21.49,28.84-52.41,44-85.81,54.25c-47.25,14.57-95.06,17.53-144.28,6.23c35.57-43.38,34.78-63-4.72-100.78
	c60.52-27.77,119-58.36,186.27-63.38c23.09-1.72,43.64,4.74,54.42,27.08C686.09,875.62,685.35,902.16,667.57,926z M763.36,815.7
	c-29.88,14-61.27,18.31-93.08,7.77c-26.8-8.87-54-16.88-77.12-34.73c-22-17-36.62-37.48-38.57-65.9c-0.33-4.84,1.89-13-6.18-12.13
	c-7,0.74-5.12,8.52-4.69,13.54c2.63,30.91,17.41,55,42.28,73c5.43,3.94,11.08,7.58,19.56,13.36c-31.29,8.42-60.34,14.86-89.73,26.65
	c4.63-37.68,6.26-72-1.21-106.06c-9.39-42.79-34.48-64-77.83-66.17c-9.45-0.47-19-0.53-28.42-0.15c-44,1.79-70.28,22.83-81.08,65.66
	c-8.7,34.51-5.92,69.53-2.1,106.17c-29.42-10.59-58.29-18.4-88.66-25.71c11.07-8.57,20.75-15.78,30.11-23.38
	c21.49-17.47,28.1-42,31.22-67.88c0.44-3.67-0.09-9.17-5.25-9.55c-5.53-0.41-5.45,4.72-5.72,8.71c-3.72,55-41.47,78.65-87.42,94
	c-23.9,8-47.44,17.45-73.9,15.36c-25.09-2-47.51-9.24-66.63-25.49c-5.6-4.88-10.4-10.62-14.21-17c-13.73-22.63-10.23-52.75,7.19-67
	c12.51-10.26,34.55-6.12,55.38,10.75c14.21,11.51,23.22,26.14,25.48,44.59c0.43,3.46,2,7.58,5.51,7.41c5.05-0.23,5.74-4.92,5.32-9.2
	c-1.41-14.47-6.13-27.69-18.47-41.72c53.33-5.24,77.38-44.31,103.94-80.62c6.73-9.2,14.89-17.45,22.95-25.58
	c17.55-17.72,34.37-23.81,62.28-15.28c75.89,23.21,153.34,22.11,229-4.84c8.89-3.16,15.27-2.25,22.54,2.16
	c16.27,9.78,30.57,22.52,42.15,37.56c7.83,10.18,15.35,20.6,22.9,31c20.43,28.15,44.84,50.51,82.56,55.44
	c-6.83,16.5-20.63,30.38-13.5,54.58c5.73-12.11,10-19.76,13-27.86c7.55-19.91,21.73-32.55,41.09-40.5
	c23.34-9.59,41.2-1.3,48.54,23.18c8.86,29.37-6.89,60.7-39.23,75.88V815.7z"/>
<path class="st3" d="M515.83,837.31c4.63-37.68,6.26-72-1.21-106.06c-9.39-42.79-34.48-64-77.83-66.16
	c-9.45-0.48-19-0.54-28.42-0.16c-44,1.79-70.28,22.83-81.08,65.66c-8.7,34.51-5.92,69.53-2.1,106.17
	c-29.42-10.59-58.29-18.4-88.66-25.71c11.07-8.57,20.75-15.78,30.11-23.38c21.49-17.47,28.1-42,31.22-67.88
	c0.44-3.67-0.09-9.17-5.25-9.55c-5.53-0.41-5.45,4.72-5.72,8.71c-3.72,55-41.47,78.65-87.42,94c-23.9,8-47.44,17.45-73.9,15.36
	c-25.09-2-47.51-9.24-66.63-25.49c-5.6-4.88-10.4-10.62-14.21-17c-13.73-22.63-10.23-52.75,7.19-67
	c12.51-10.26,34.55-6.12,55.38,10.75c14.21,11.51,23.22,26.14,25.48,44.59c0.43,3.46,2,7.58,5.51,7.41c5.05-0.23,5.74-4.92,5.32-9.2
	c-1.41-14.47-6.13-27.69-18.47-41.72c53.33-5.24,77.38-44.31,103.94-80.62c6.73-9.2,14.89-17.45,22.95-25.58
	c17.55-17.72,34.37-23.81,62.28-15.28c75.89,23.21,153.34,22.11,229-4.84c8.89-3.16,15.27-2.25,22.54,2.16
	c16.27,9.77,30.56,22.49,42.15,37.51c7.83,10.18,15.35,20.6,22.9,31c20.43,28.15,44.84,50.51,82.56,55.44
	c-6.83,16.5-20.63,30.38-13.5,54.58c5.73-12.11,10-19.76,13-27.86c7.55-19.91,21.73-32.55,41.09-40.5
	c23.34-9.59,41.2-1.3,48.54,23.18c8.79,29.33-7,60.66-39.3,75.84c-29.88,14-61.27,18.31-93.08,7.77c-26.8-8.87-54-16.88-77.12-34.73
	c-22-17-36.62-37.48-38.57-65.9c-0.33-4.84,1.89-13-6.18-12.13c-7,0.74-5.12,8.52-4.69,13.54c2.63,30.91,17.41,55,42.28,73
	c5.43,3.94,11.08,7.58,19.56,13.36C574.27,819.08,545.22,825.52,515.83,837.31z"/>
<path class="st3" d="M424.45,895.09c-47.39-26.19-96.56-48.48-148.9-63.16c-17.62-4.94-35.37-9.21-53.74-9.79
	c-17.41-0.56-32.82,3.38-46.44,16c-17.84,16.5-21.26,68.42,1.84,92.67c37.79,39.64,85.59,54.76,137.89,60.44h1.26
	c21.17,2.6,42.58,2.5,63.72-0.28c12.87-0.77,25.49-3.92,37.21-9.28c18.87-8.44,33.23-21.46,35.31-43.3
	C454.62,917.08,440.88,904.17,424.45,895.09z"/>
<path class="st3" d="M437.48,986.5c35.57-43.38,34.78-63-4.72-100.78c60.52-27.77,119-58.36,186.27-63.38
	c23.09-1.72,43.64,4.74,54.42,27.08c12.64,26.2,11.9,52.74-5.88,76.6c-21.49,28.84-52.41,44-85.81,54.25
	C534.51,994.84,486.7,997.8,437.48,986.5z"/>
<path class="st4" d="M187.63,850.69c14.89-13.78,31.74-18.09,50.78-17.48c15.83,0.5,31.23,3.52,46.47,7.41
	c-5.84-1.88-11.73-3.66-17.67-5.33c-15.49-4.35-31.1-8.1-47.26-8.61c-15.31-0.49-28.86,3-40.84,14.06c-13,12-17.25,45.4-6.79,68.63
	C170,885.78,176,861.41,187.63,850.69z"/>
<path class="st4" d="M604,836.74c23.74-1.78,45.71,2.15,62.61,15.23c-11.13-19.94-30.82-25.78-52.85-24.14
	c-37.21,2.78-71.72,13.39-105.36,27C539.28,845.74,571,839.21,604,836.74z"/>
<path class="st5" d="M331.61,782.64c0.83-25.61,1-51.28,15.44-74.08c12.83-20.27,30.31-32.07,55.08-31.31
	c9.47,0.28,18.95,0.34,28.42,0.19c44.72-0.67,67,16.55,75.05,59.86c5.47,29.43,6.24,59.07,1,88.85c-1.09,6.17-3.11,10.87-6.71,15.08
	s-8.17,6.87-14.68,10.66c-4.84,2.82-8.7,4.62-9.72,5.09c-10.15,4.68-25.15,11.61-40.36,14.21c-33.54,5.72-61.66-10.93-75.36-18.58
	c-19.75-11-26.84-23.93-28-43.59C331.17,800.26,331.61,791.43,331.61,782.64z"/>
<path class="st4" d="M401,686.36c10.3,0.31,20.6,0.37,30.91,0.2c31.28-0.46,52.43,7.18,65.9,25.17
	c-11.65-23.9-32.67-33.83-66.75-33.32c-9.47,0.14-18.95,0.1-28.42-0.19c-24.77-0.75-42.25,11-55.08,31.31
	c-1.45,2.32-2.79,4.71-4,7.16C357.27,696.94,375.61,685.59,401,686.36z"/>
<path class="st6" d="M505.39,828.89c-6.36,3.7-11.43,6.07-12.77,6.69c-13.31,6.14-33,15.24-53,18.64
	c-44,7.51-80.95-14.34-98.92-24.38c-1.89-1.05-3.66-2.13-5.37-3.21c4,10.29,11.45,18.38,24.46,25.65
	c13.69,7.65,41.82,24.3,75.35,18.58c15.22-2.6,30.22-9.53,40.36-14.21c1-0.47,4.88-2.27,9.73-5.09c6.5-3.79,11.07-6.46,14.68-10.66
	c3-3.57,5.09-7.82,6.09-12.38L505.39,828.89z"/>
<path class="st7" d="M420,638.82l-2.91,0.1c-1.34-0.02-2.68-0.13-4-0.34c-0.35-0.05-0.71-0.08-1.07-0.1
	c-121.73-6.64-251.09-81-251.09-205.7C160.9,310,288.1,202.2,327.09,172.09c4.99-3.84,11.1-5.93,17.4-5.94h151
	c6.3,0.01,12.41,2.1,17.4,5.94c39,30.11,166.19,137.91,166.19,260.69c0,124.72-129.37,199.06-251.09,205.7c-0.36,0-0.72,0-1.08,0.1
	c-1.32,0.21-2.66,0.32-4,0.34L420,638.82z"/>
<path class="st6" d="M579,229.33c41.54,57.32,81.58,134.21,78.83,215.44c-1.75,51.5-20.18,94.87-48.69,129.48
	c40.55-32.71,67.94-77.43,69.82-133.11C681.79,358.6,626.85,280.92,579,229.33z"/>
<path class="st6" d="M260.24,229.33c-41.54,57.32-81.58,134.21-78.82,215.44c1.75,51.5,20.18,94.87,48.69,129.48
	c-40.55-32.71-67.94-77.43-69.83-133.11C157.48,358.6,212.42,280.92,260.24,229.33z"/>
<ellipse class="st8" cx="419.99" cy="434.34" rx="167.55" ry="113.34"/>
<g class="st9">
	<path class="st10" d="M420,538.29c-43.82,0-83.69-7.83-113.54-20.63c29.85,18.62,69.72,30,113.54,30s83.69-11.39,113.55-30
		C503.68,530.46,463.81,538.29,420,538.29z"/>
</g>
<circle class="st2" cx="381.38" cy="383.03" r="4.04"/>
<circle class="st2" cx="365.11" cy="383.03" r="4.04"/>
<circle class="st2" cx="373.42" cy="369.84" r="4.04"/>
<circle class="st2" cx="470.84" cy="383.03" r="4.04"/>
<circle class="st2" cx="454.57" cy="383.03" r="4.04"/>
<circle class="st2" cx="462.88" cy="369.84" r="4.04"/>
<path class="st4" d="M126.76,779.78c-2.46-18-11.37-32.31-25.32-43.61c-19.34-15.66-39.72-20.33-52.55-12.7
	C84.08,732.18,112.58,753,126.76,779.78z"/>
<path class="st4" d="M790.78,724.56c-14.06-4-27.51-2-40.34,4.65c-17.79,9.23-27.79,22.77-26.29,34.69
	C741.9,740.74,766.43,726.4,790.78,724.56z"/>
<path class="st6" d="M286.18,719.36c0.27-4,0.18-9.11,5.71-8.7c2.18,0.07,4.08,1.52,4.74,3.6c0.18-1.29,0.35-2.59,0.51-3.89
	c0.44-3.66-0.09-9.16-5.25-9.54c-5.53-0.41-5.44,4.71-5.71,8.7c-3.72,55-41.48,78.65-87.43,94c-23.9,8-47.43,17.45-73.9,15.35
	c-25.09-2-47.51-9.23-66.63-25.48c-5.6-4.88-10.4-10.62-14.21-17c-4.65-7.72-7.45-16.42-8.18-25.4
	c-1.05,12.32,1.81,24.66,8.17,35.26c3.81,6.38,8.61,12.12,14.21,17c19.12,16.25,41.54,23.5,66.63,25.48
	c26.47,2.1,50-7.37,73.9-15.35C244.7,798,282.46,774.34,286.18,719.36z"/>
<path class="st6" d="M554.51,719.36c-0.27-4-0.19-9.11-5.71-8.7c-2.19,0.07-4.09,1.52-4.75,3.6c-0.17-1.29-0.35-2.59-0.5-3.89
	c-0.44-3.66,0.08-9.16,5.25-9.54c5.52-0.41,5.44,4.71,5.71,8.7c3.72,55,41.48,78.65,87.43,94c23.89,8,47.43,17.45,73.9,15.35
	c25.08-2,47.51-9.23,66.62-25.48c5.6-4.88,10.4-10.62,14.22-17c4.64-7.72,7.44-16.42,8.17-25.4c1.06,12.33-1.8,24.69-8.17,35.3
	c-3.81,6.38-8.61,12.12-14.22,17c-19.11,16.25-41.54,23.5-66.62,25.48c-26.47,2.1-50-7.37-73.9-15.35
	C596,798,558.23,774.34,554.51,719.36z"/>
<path class="st6" d="M440,986.24c49.21,11.29,97,8.34,144.27-6.23c33.3-10.27,64.12-25.32,85.61-54
	C622.14,956.93,539.5,978.27,444,981.29C442.66,982.92,441.42,984.53,440,986.24z"/>
<ellipse transform="matrix(0.5 -0.866 0.866 0.5 -60.3805 550.2544)" class="st4" cx="446.34" cy="327.42" rx="4.17" ry="6.6"/>
<circle class="st4" cx="455.02" cy="337.48" r="2.71"/>
<path class="st6" d="M317.63,991h1.27c21.16,2.61,42.57,2.51,63.71-0.27c12.65-0.75,25.06-3.8,36.62-9
	C320.83,981.49,234,961.89,181.17,932C218.71,970.51,266,985.38,317.63,991z"/>
<circle class="st2" cx="347.59" cy="310.55" r="11.12"/>
<circle class="st4" cx="344.11" cy="310.55" r="3.47"/>
<circle class="st2" cx="485.85" cy="310.55" r="11.12"/>
<circle class="st4" cx="489.32" cy="310.55" r="3.47"/>
<path class="st2" d="M191.28,698c18.49,5.6,26.14,30.53,30.73,47c5.74,20.88,7.24,42.71,4.41,64.18c-0.83,6.47,9.34,6.41,10.17,0
	c3.11-24.21,0.95-48.8-6.32-72.1c-6-19-15.33-42.57-36.29-48.91c-6.28-1.9-9,7.91-2.7,9.8L191.28,698z"/>
<path class="st2" d="M171.13,713.72c17.06,4.65,25.11,24.58,30.09,39.81c6.16,18.7,7.95,38.56,5.23,58.06
	c-0.91,6.4,8.88,9.17,9.8,2.71c3.34-22.5,1.14-45.47-6.41-66.93c-6.37-17.84-16.21-38.06-36-43.46
	C167.52,702.19,164.84,711.99,171.13,713.72L171.13,713.72z"/>
<path class="st2" d="M649.33,698c-18.5,5.6-26.14,30.53-30.73,47c-5.74,20.88-7.25,42.71-4.42,64.18c0.84,6.47-9.34,6.41-10.16,0
	c-3.12-24.21-0.96-48.8,6.32-72.1c6-19,15.33-42.57,36.29-48.91c6.27-1.9,9,7.91,2.7,9.8L649.33,698z"/>
<path class="st2" d="M669.48,713.72c-17.07,4.65-25.12,24.58-30.1,39.81c-6.16,18.7-7.95,38.56-5.23,58.06
	c0.91,6.4-8.88,9.17-9.8,2.71c-3.34-22.5-1.13-45.47,6.41-66.93c6.37-17.84,16.21-38.06,36-43.46c6.32-1.72,9,8.08,2.7,9.81H669.48z
	"/>
<path class="st2" d="M537.61,664.6v12.61c0,2.25-1.82,4.07-4.07,4.07h-26.76c-2.25,0-4.07-1.82-4.07-4.07V664.6
	c0-2.25,1.82-4.07,4.07-4.07h26.76C535.79,660.53,537.61,662.35,537.61,664.6z"/>
<rect x="506.77" y="664.6" class="st8" width="26.77" height="12.62"/>
<path class="st4" d="M470.16,245.11c-8.17-0.09-16.23,1.84-23.47,5.61c-4.33,2.32-6.19,6.45-5.64,11.36
	c1.06,9.62,4.12,18.42,11.94,25.77c-2.42-17.76,1.16-31.83,20-37.77c0.67-0.21,1.41-2,1.21-2.76
	C473.73,245.4,471.88,245.09,470.16,245.11z"/>
<path class="st4" d="M336.92,244.05c-5.67-4.26-24,0.63-27.11,7.09c-4.43,9.1-0.66,28.38,8.65,37.2c-1.82-9.56-3.79-17.18-1-24.88
	c3.1-8.84,10.54-11.46,18.54-13.65C338.82,249.05,339.84,246.24,336.92,244.05z"/>
<path class="st2" d="M541.51,232.25c-23.43-9.67-47.52-7.6-71.11-2.2c-34.53,7.91-68.62,8.69-103,0c-11.92-3-24.31-3.91-36.28-4.4
	c-13.34,0.46-26,2.19-38,7.58c-10.26,4.63-14,20.28-5.49,27.47c5.68,4.76,6.88,10.1,8.16,16.5c3.95,19.78,11.44,37.9,33,43.74
	c31.95,8.65,70.11,1.09,81.14-42.2c1.3-5.11,1.29-12.83,8.49-12.83c8,0,8.19,8.13,9.76,13.78c8.29,29.83,28.16,44.8,59.15,44.22
	c29.21-0.55,45.81-13.74,52.86-42.08c1-4.07,1.77-8.21,2.67-12.31c0.36-2.48,1.59-4.76,3.46-6.43
	C558.56,252.71,556.23,238.32,541.51,232.25z M336,249.81c-8.08,2.18-15.47,4.81-18.61,13.65c-2.75,7.7-0.78,15.32,1,24.88
	c-9.31-8.82-13.08-28.1-8.65-37.2c3.15-6.46,21.44-11.35,27.11-7.09C339.84,246.24,338.82,249.05,336,249.81z M473,250.08
	c-18.85,5.94-22.43,20-20,37.77c-7.82-7.35-10.88-16.15-11.94-25.77c-0.55-4.91,1.31-9,5.64-11.36c7.24-3.77,15.3-5.7,23.47-5.61
	c1.72,0,3.57,0.29,4,2.21C474.41,248.12,473.67,249.87,473,250.08z"/>
<rect x="239.52" y="232.87" class="st2" width="60.68" height="23.4"/>
<rect x="532.3" y="232.87" class="st2" width="60.68" height="23.4"/>
<path class="st2" d="M173.08,374.86c-7.31,0.15-14.37-2.69-19.54-7.86c-8.43-8.44-9-20.28-9.25-26.64
	c-2.69-59.1,5.11-118.21,23.05-174.58c2.82-8.88,6.51-19,14.65-26.39c10-9.14,23.36-11.22,35.07-12.06
	c6.67-0.48,13.39-0.72,20.17-0.71c30.13-0.01,60.07,4.65,88.77,13.81c5.62,1.81,9.14,7.38,8.36,13.23c0.25,0.77,0.43,1.57,0.53,2.38
	c1.92,15.83-4.53,33-18.18,48.2c-5.41,5.84-11.15,11.37-17.2,16.54c-5,4.43-9.69,8.62-13.92,13.15
	c-14.46,15.49-23.81,35.42-33.7,56.52c-12.8,27.31-26,55.55-51.59,74.48C192.37,370.82,182.5,374.86,173.08,374.86z"/>
<path class="st11" d="M322.8,157.51l-0.51-5.47c-33.67-10.79-69.09-15.06-104.36-12.56c-9.87,0.7-20.41,2.24-27.72,8.91
	c-6,5.42-8.81,13.39-11.24,21.07c-17.45,55.01-25.06,112.67-22.49,170.33c0.29,6.62,1,13.87,5.69,18.57c8,8,21.8,3.5,30.89-3.23
	c41.65-30.87,48.26-91.64,83.63-129.53c9.73-10.42,21.45-18.86,30.95-29.49S324.52,171.66,322.8,157.51z"/>
<path class="st2" d="M632.48,364.93c-25.55-18.93-38.79-47.17-51.59-74.48c-9.89-21.1-19.23-41-33.7-56.52
	c-4.22-4.53-8.93-8.72-13.92-13.15c-6.05-5.17-11.79-10.7-17.2-16.54C502.43,189,496,171.87,497.89,156
	c0.1-0.81,0.28-1.61,0.53-2.38c-0.78-5.85,2.74-11.42,8.36-13.23c28.71-9.16,58.66-13.83,88.79-13.83c6.75,0,13.48,0.24,20.17,0.71
	c11.72,0.84,25,2.92,35.07,12.06c8.15,7.42,11.84,17.51,14.66,26.39c17.92,56.38,25.71,115.48,23,174.58
	c-0.28,6.36-0.81,18.2-9.24,26.64c-5.17,5.18-12.23,8.03-19.55,7.88C650.31,374.86,640.44,370.82,632.48,364.93z"/>
<path class="st11" d="M510,157.51l0.52-5.47c33.67-10.79,69.08-15.06,104.35-12.56c9.88,0.7,20.41,2.24,27.73,8.91
	c5.95,5.42,8.8,13.39,11.24,21.07c17.44,55.02,25.05,112.67,22.49,170.33c-0.3,6.62-1,13.87-5.69,18.57c-8,8-21.8,3.5-30.9-3.23
	c-41.64-30.87-48.25-91.64-83.63-129.53c-9.73-10.42-21.44-18.86-31-29.49S508.28,171.66,510,157.51z"/>
<path class="st6" d="M656.11,169.51c-2.44-7.68-5.29-15.64-11.24-21.07c-7.32-6.66-17.85-8.2-27.73-8.91
	c-28.28-1.98-56.69,0.38-84.25,7c24.79-2.17,49.74-1.49,74.38,2c11.26,1.6,23.22,4.2,31.07,12.25c6.39,6.56,9,15.69,11.19,24.47
	c14.34,57.95,18.92,117.89,13.55,177.35c3.69-0.13,7.19-1.63,9.83-4.21c4.68-4.69,5.39-11.94,5.69-18.57
	C681.16,282.17,673.55,224.52,656.11,169.51z"/>
<path class="st6" d="M322.8,157.54l-0.51-5.47c-29.74-9.53-60.87-13.97-92.09-13.14c26.25,0.7,52.26,5.13,77.26,13.14l0.52,5.47
	c1.72,14.15-5.66,28-15.17,38.6s-21.21,19.07-30.94,29.49c-35.38,37.89-42,98.66-83.64,129.52c-3.57,2.67-7.56,4.74-11.79,6.14
	c8.05,3.56,19-0.48,26.62-6.14c41.65-30.86,48.26-91.63,83.63-129.52c9.73-10.42,21.45-18.86,30.95-29.49
	S324.52,171.69,322.8,157.54z"/>
<path class="st4" d="M183.08,189.31c2.77-10.37,6-21.12,12.78-28.45c8.32-9,20.29-11.08,31.51-12c18.11-1.5,36.33-1.13,54.37,1.1
	c-22.3-6.1-45.5-8.24-68.54-6.33c-8.31,0.7-17.18,2.24-23.33,8.91c-5,5.43-7.41,13.39-9.46,21.07
	c-11.67,43.92-18.1,89.07-19.16,134.51C165.41,268.01,172.71,228.28,183.08,189.31z"/>
<path class="st4" d="M569.56,222.91c-9.69-10.25-21.33-18.54-30.8-29c-8-8.84-14.49-19.95-15.33-31.64l-0.4,4.18
	c-1.49,12.28,4.92,24.28,13.17,33.5s18.41,16.55,26.85,25.6c30.71,32.88,36.45,85.63,72.6,112.42c2.39,1.76,4.97,3.23,7.71,4.38
	C610.34,310.36,601.83,257.07,569.56,222.91z"/>
<ellipse class="st2" cx="419.99" cy="340.2" rx="46.57" ry="29.65"/>
<path class="st2" d="M415.36,343.92c-0.59,22.07-2.23,50-24.32,61.8c-20.61,11-39.73-8.25-48.44-25.37c-3-5.83-11.74-0.69-8.78,5.13
	c11.12,21.86,34.79,41.66,60.23,30.06c27.31-12.45,30.77-45.36,31.48-71.62C425.71,337.37,415.53,337.38,415.36,343.92z"/>
<path class="st2" d="M414.46,343.92c0.7,26.26,4.16,59.17,31.47,71.62c25.44,11.6,49.12-8.2,60.24-30.06c3-5.81-5.81-11-8.78-5.13
	c-8.71,17.12-27.83,36.39-48.44,25.37c-22.1-11.81-23.73-39.73-24.33-61.8C424.44,337.39,414.28,337.36,414.46,343.92z"/>
<path class="st6" d="M608,640.2c-2.86-3.57-5.86-6.99-9-10.25c-59.14,12.39-119.41,18.55-179.83,18.38
	c-58.43,0.15-116.73-5.59-174-17.15c-3.2,3.33-6.33,6.71-9.29,10.23c58.42,12.68,119.88,19.12,183.33,19.12
	C484.63,660.53,548,653.69,608,640.2z"/>
<path class="st2" d="M417.68,649.92c-79.62,0-156.12-10.13-227.38-30.11c-1.11-0.32-2.15-0.85-3.06-1.57
	c-11.11-8.89-21.68-18.44-31.64-28.6c-2.54-2.55-3.03-6.49-1.2-9.58c1.57-2.58,4.38-4.14,7.4-4.12c0.61,0,1.21,0.06,1.81,0.18
	c81.12,16.88,166.6,25.38,254.07,25.38s172.94-8.5,254.06-25.38c0.59-0.12,1.2-0.18,1.8-0.18c3.02-0.02,5.83,1.54,7.41,4.12
	c1.83,3.09,1.34,7.03-1.2,9.58c-9.96,10.16-20.53,19.71-31.64,28.6c-0.91,0.72-1.95,1.25-3.06,1.57
	C573.79,639.79,497.29,649.92,417.68,649.92z"/>
<path class="st12" d="M171.3,584.07c9.26,9.9,19.13,19.23,29.53,27.93c67.39,19.77,139.74,29.79,215.1,29.79S563.63,631.77,631,612
	c10.41-8.7,20.27-18.02,29.53-27.93c-78.12,17-160.08,25.56-244.62,25.56S249.43,601,171.3,584.07z"/>
<ellipse transform="matrix(0.5 -0.866 0.866 0.5 -60.3837 548.3694)" class="st4" cx="444.71" cy="326.48" rx="5.36" ry="8.49"/>
<circle class="st4" cx="455.87" cy="339.42" r="3.49"/>
</svg>
